<svg xmlns="http://www.w3.org/2000/svg" width="512" height="512" viewBox="0 0 512 512"><defs><linearGradient id="bgGrad" x1="0%" x2="100%" y1="0%" y2="100%"><stop offset="0%" style="stop-color:#fff8f0"/><stop offset="100%" style="stop-color:#eef3ff"/></linearGradient><linearGradient id="brushGrad" x1="0%" x2="100%" y1="0%" y2="100%"><stop offset="0%" style="stop-color:#ff8c61"/><stop offset="50%" style="stop-color:#ffca3a"/><stop offset="100%" style="stop-color:#d45de8"/></linearGradient><linearGradient id="letterGrad" x1="0%" x2="0%" y1="0%" y2="100%"><stop offset="0%" style="stop-color:#3a3d9e"/><stop offset="100%" style="stop-color:#6c3fc7"/></linearGradient><linearGradient id="aGrad" x1="0%" x2="0%" y1="0%" y2="100%"><stop offset="0%" style="stop-color:#ff8c61"/><stop offset="100%" style="stop-color:#e84393"/></linearGradient><filter id="glow" width="140%" height="140%" x="-20%" y="-20%"><feGaussianBlur result="coloredBlur" stdDeviation="5"/><feMerge><feMergeNode in="coloredBlur"/><feMergeNode in="SourceGraphic"/></feMerge></filter><filter id="letterShadow" width="130%" height="140%" x="-10%" y="-10%"><feDropShadow dx="0" dy="4" flood-color="#6C3FC7" flood-opacity=".18" stdDeviation="8"/></filter><filter id="brushShadow"><feDropShadow dx="0" dy="3" flood-color="#FF8C61" flood-opacity=".25" stdDeviation="6"/></filter><clipPath id="roundClip"><rect width="512" height="512" rx="112" ry="112"/></clipPath></defs><rect width="512" height="512" fill="url(#bgGrad)" rx="112" ry="112"/><rect width="512" height="512" fill="none" stroke="#D8C8FF" stroke-width="2" opacity=".5" rx="112" ry="112"/><circle cx="60" cy="80" r="80" fill="#FFE8D6" opacity=".4"/><circle cx="460" cy="440" r="100" fill="#E0D4FF" opacity=".35"/><circle cx="430" cy="90" r="55" fill="#FFDDF4" opacity=".3"/><g clip-path="url(#roundClip)" opacity=".06"><circle cx="80" cy="80" r="2" fill="#5B4FCF"/><circle cx="160" cy="80" r="2" fill="#5B4FCF"/><circle cx="240" cy="80" r="2" fill="#5B4FCF"/><circle cx="320" cy="80" r="2" fill="#5B4FCF"/><circle cx="400" cy="80" r="2" fill="#5B4FCF"/><circle cx="80" cy="160" r="2" fill="#5B4FCF"/><circle cx="160" cy="160" r="2" fill="#5B4FCF"/><circle cx="240" cy="160" r="2" fill="#5B4FCF"/><circle cx="320" cy="160" r="2" fill="#5B4FCF"/><circle cx="400" cy="160" r="2" fill="#5B4FCF"/><circle cx="80" cy="240" r="2" fill="#5B4FCF"/><circle cx="160" cy="240" r="2" fill="#5B4FCF"/><circle cx="320" cy="240" r="2" fill="#5B4FCF"/><circle cx="400" cy="240" r="2" fill="#5B4FCF"/><circle cx="80" cy="320" r="2" fill="#5B4FCF"/><circle cx="160" cy="320" r="2" fill="#5B4FCF"/><circle cx="320" cy="320" r="2" fill="#5B4FCF"/><circle cx="400" cy="320" r="2" fill="#5B4FCF"/><circle cx="80" cy="400" r="2" fill="#5B4FCF"/><circle cx="160" cy="400" r="2" fill="#5B4FCF"/><circle cx="240" cy="400" r="2" fill="#5B4FCF"/><circle cx="320" cy="400" r="2" fill="#5B4FCF"/><circle cx="400" cy="400" r="2" fill="#5B4FCF"/></g><path fill="none" stroke="url(#brushGrad)" stroke-linecap="round" stroke-width="18" d="M 90 360 Q 180 150 340 200 Q 430 230 420 310" filter="url(#brushShadow)" opacity=".75"/><ellipse cx="420" cy="310" fill="#FFCA3A" filter="url(#glow)" opacity=".9" rx="10" ry="18" transform="rotate(-30 420 310)"/><circle cx="108" cy="345" r="5" fill="#FF8C61" opacity=".5"/><circle cx="88" cy="372" r="3" fill="#FFCA3A" opacity=".5"/><circle cx="125" cy="370" r="4" fill="#D45DE8" opacity=".35"/><circle cx="400" cy="285" r="4" fill="#FF8C61" opacity=".4"/><circle cx="440" cy="330" r="3" fill="#FFCA3A" opacity=".35"/><text x="68" y="170" fill="#6C3FC7" font-family="Georgia, serif" font-size="28" opacity=".07" transform="rotate(-15 68 170)">a</text><text x="390" y="140" fill="#6C3FC7" font-family="Georgia, serif" font-size="22" opacity=".07" transform="rotate(12 390 140)">z</text><text x="420" y="400" fill="#6C3FC7" font-family="Georgia, serif" font-size="24" opacity=".06" transform="rotate(-8 420 400)">w</text><text x="70" y="420" fill="#6C3FC7" font-family="Georgia, serif" font-size="20" opacity=".06" transform="rotate(10 70 420)">e</text><text x="310" y="430" fill="#6C3FC7" font-family="Georgia, serif" font-size="18" opacity=".06" transform="rotate(-5 310 430)">q</text><text x="256" y="320" fill="url(#letterGrad)" filter="url(#letterShadow)" font-family="Georgia, 'Times New Roman', serif" font-size="240" font-weight="bold" opacity=".95" text-anchor="middle">V</text><text x="356" y="355" fill="url(#aGrad)" filter="url(#glow)" font-family="Georgia, 'Times New Roman', serif" font-size="80" font-weight="bold" opacity=".9" text-anchor="middle">A</text><text x="256" y="462" fill="#5B4FCF" font-family="'Palatino Linotype', Palatino, serif" font-size="34" letter-spacing="10" opacity=".45" text-anchor="middle">VOCABSART</text><line x1="148" x2="364" y1="472" y2="472" stroke="#FF8C61" stroke-width="1.5" opacity=".35"/></svg>