<svg xmlns="http://www.w3.org/2000/svg" width="512" height="512" viewBox="0 0 512 512"><defs><linearGradient id="bgGrad" x1="0%" x2="100%" y1="0%" y2="100%"><stop offset="0%" style="stop-color:#0d1b3e"/><stop offset="100%" style="stop-color:#2a0845"/></linearGradient><linearGradient id="brushGrad" x1="0%" x2="100%" y1="0%" y2="100%"><stop offset="0%" style="stop-color:#ff6b35"/><stop offset="50%" style="stop-color:gold"/><stop offset="100%" style="stop-color:#ff3cac"/></linearGradient><linearGradient id="letterGrad" x1="0%" x2="0%" y1="0%" y2="100%"><stop offset="0%" style="stop-color:#fff"/><stop offset="100%" style="stop-color:#a8edea"/></linearGradient><filter id="glow" width="140%" height="140%" x="-20%" y="-20%"><feGaussianBlur result="coloredBlur" stdDeviation="6"/><feMerge><feMergeNode in="coloredBlur"/><feMergeNode in="SourceGraphic"/></feMerge></filter><filter id="softShadow" width="120%" height="130%" x="-10%" y="-10%"><feDropShadow dx="0" dy="6" flood-color="#FF6B35" flood-opacity=".35" stdDeviation="10"/></filter><clipPath id="roundClip"><rect width="512" height="512" rx="112" ry="112"/></clipPath></defs><rect width="512" height="512" fill="url(#bgGrad)" rx="112" ry="112"/><g clip-path="url(#roundClip)" opacity=".04"><line x1="0" x2="512" y1="64" y2="64" stroke="#fff" stroke-width="1"/><line x1="0" x2="512" y1="128" y2="128" stroke="#fff" stroke-width="1"/><line x1="0" x2="512" y1="192" y2="192" stroke="#fff" stroke-width="1"/><line x1="0" x2="512" y1="256" y2="256" stroke="#fff" stroke-width="1"/><line x1="0" x2="512" y1="320" y2="320" stroke="#fff" stroke-width="1"/><line x1="0" x2="512" y1="384" y2="384" stroke="#fff" stroke-width="1"/><line x1="0" x2="512" y1="448" y2="448" stroke="#fff" stroke-width="1"/><line x1="64" x2="64" y1="0" y2="512" stroke="#fff" stroke-width="1"/><line x1="128" x2="128" y1="0" y2="512" stroke="#fff" stroke-width="1"/><line x1="192" x2="192" y1="0" y2="512" stroke="#fff" stroke-width="1"/><line x1="256" x2="256" y1="0" y2="512" stroke="#fff" stroke-width="1"/><line x1="320" x2="320" y1="0" y2="512" stroke="#fff" stroke-width="1"/><line x1="384" x2="384" y1="0" y2="512" stroke="#fff" stroke-width="1"/><line x1="448" x2="448" y1="0" y2="512" stroke="#fff" stroke-width="1"/></g><path fill="none" stroke="url(#brushGrad)" stroke-linecap="round" stroke-width="22" d="M 90 360 Q 180 150 340 200 Q 430 230 420 310" filter="url(#glow)" opacity=".85"/><ellipse cx="420" cy="310" fill="gold" filter="url(#glow)" opacity=".9" rx="12" ry="22" transform="rotate(-30 420 310)"/><circle cx="108" cy="345" r="5" fill="#FF6B35" opacity=".7"/><circle cx="88" cy="372" r="3" fill="gold" opacity=".6"/><circle cx="125" cy="370" r="4" fill="#FF3CAC" opacity=".5"/><circle cx="400" cy="285" r="4" fill="#FF6B35" opacity=".5"/><circle cx="440" cy="330" r="3" fill="gold" opacity=".4"/><text x="68" y="170" fill="#fff" font-family="Georgia, serif" font-size="28" opacity=".08" transform="rotate(-15 68 170)">a</text><text x="390" y="140" fill="#fff" font-family="Georgia, serif" font-size="22" opacity=".08" transform="rotate(12 390 140)">z</text><text x="420" y="400" fill="#fff" font-family="Georgia, serif" font-size="24" opacity=".07" transform="rotate(-8 420 400)">w</text><text x="70" y="420" fill="#fff" font-family="Georgia, serif" font-size="20" opacity=".07" transform="rotate(10 70 420)">e</text><text x="310" y="430" fill="#fff" font-family="Georgia, serif" font-size="18" opacity=".07" transform="rotate(-5 310 430)">q</text><text x="256" y="320" fill="url(#letterGrad)" filter="url(#softShadow)" font-family="Georgia, 'Times New Roman', serif" font-size="240" font-weight="bold" opacity=".97" text-anchor="middle">V</text><text x="356" y="355" fill="gold" filter="url(#glow)" font-family="Georgia, 'Times New Roman', serif" font-size="80" font-weight="bold" opacity=".9" text-anchor="middle">A</text><text x="256" y="462" fill="#fff" font-family="'Palatino Linotype', Palatino, serif" font-size="34" letter-spacing="10" opacity=".55" text-anchor="middle">VOCABSART</text><line x1="148" x2="364" y1="472" y2="472" stroke="gold" stroke-width="1.5" opacity=".4"/></svg>